<svg xmlns="http://www.w3.org/2000/svg" width="512" height="512" viewBox="0 0 512 512"><mask id="a"><circle cx="256" cy="256" r="256" fill="#fff"/></mask><g mask="url(#a)"><path fill="#eee" d="M0 0h512v512H0z"/><path fill="#d80027" d="M30 0h452L256 226Z"/><path fill="#d80027" d="M30 512h452L256 286Z"/><path fill="#6da544" d="M0 30v452l226-226Z"/><path fill="#6da544" d="M512 30v452L286 256Z"/><circle cx="256" cy="256" r="100" fill="#eee"/><g fill="#d80027" stroke="#6da544" stroke-width="6"><path d="M256.0,176.0L264.7,191.0L282.0,191.0L273.3,206.0L282.0,221.0L264.7,221.0L256.0,236.0L247.3,221.0L230.0,221.0L238.7,206.0L230.0,191.0L247.3,191.0Z"/><path d="M214.0,262.0L222.7,277.0L240.0,277.0L231.3,292.0L240.0,307.0L222.7,307.0L214.0,322.0L205.3,307.0L188.0,307.0L196.7,292.0L188.0,277.0L205.3,277.0Z"/><path d="M298.0,262.0L306.7,277.0L324.0,277.0L315.3,292.0L324.0,307.0L306.7,307.0L298.0,322.0L289.3,307.0L272.0,307.0L280.7,292.0L272.0,277.0L289.3,277.0Z"/></g></g></svg>